<svg version="1" xmlns="http://www.w3.org/2000/svg" width="400" height="400" viewBox="0 0 300.000000 300.000000"><path d="M45.9 20.7c-.1 1-.1 1.1-4.4 25.3-1.9 10.7-3.7 21.1-4 23-.4 1.9-1.1 6-1.6 9s-1.4 8-1.9 11c-.6 3-1.2 6.4-1.4 7.5-.2 1.1-.7 4-1.1 6.5-.4 2.5-.9 5.4-1.1 6.5-.2 1.1-.7 3.3-.9 5-1.8 10.3-5.1 28.6-8 45-1.9 10.4-3.6 20.3-3.9 22-.3 1.6-.8 4.6-1.1 6.5-.3 1.9-.8 4.2-1 5-.2.8-.6 3.3-1 5.5-.3 2.2-1.7 10.1-3 17.5s-2.7 15.1-3 17c-.4 1.9-1.3 7.3-2.1 12C3.5 260.9 3 264 2 269.7c-.5 3.2-1.2 7-1.6 8.6l-.6 2.7h254l.7-4.3c.9-4.9 1.3-7.2 2-10.7.3-1.4 1.4-7.9 2.6-14.5 2.1-12.5 2.1-12.7 3.8-21.4.6-3 .9-5.6.6-5.9-.7-.7-31.5-.8-32.7-.1-.5.3-1.1 2.1-1.4 4-.3 1.9-1.2 6.9-2 11.3-.7 4.3-1.4 7.9-1.4 8 0 .2-41.9.3-93.1.3h-93l.5-4.1c.6-4 2.1-12.5 3.1-17.6.6-3-.2 1.8 9.5-53.5 4.4-24.8 8.2-46.1 8.4-47.5.3-1.4 1.7-9.5 3.2-18 1.4-8.5 2.8-16.4 3-17.5.2-1.1 1.3-7.2 2.4-13.5 1.1-6.3 2.2-12.6 2.5-14 .3-1.4.8-3.9 1.1-5.6l.6-3.2h92.9c85.5 0 92.9.1 92.9 1.7 0 .9-.5 3.4-1 5.6-.5 2.2-1.1 6-1.5 8.5-.4 2.5-1 6.2-1.5 8.2-.4 2.1-.5 3.9-.1 3.9.3.1 7.9.2 16.8.3l16.3.2.9-5.1c1.2-6.2 3.2-17.5 6.6-36.5 1.4-8 2.8-15.7 3.1-17.3l.6-2.7H173.1c-69.9 0-127.1.3-127.2.7z"/><path d="M124.7 94.7c-.1.1-4.3.3-9.2.4-19.1.4-25.7 6.8-29.4 28.4-.6 3.3-1.3 7.6-1.7 9.5-2.6 14.4 1.7 23.3 12.8 26.4 2.9.8 9.8 1.8 15.3 2.1 5.5.3 12.9.8 16.5 1.1 3.6.2 10.3.6 15 .9 18.9.9 29.6 1.8 31.3 2.7 2.8 1.5 1.6 13-1.8 15.8-1.9 1.6-60.1 1.8-61.8.1-.6-.6-1-3.3-.9-5.9l.2-4.7H94.2c-9.2 0-17.2.3-17.7.7-1.3.8-1.9 5.7-1.9 16.4-.1 7.3.2 8.4 2.6 11.6 5.7 7.4 4.2 7.3 61.2 7.6 55.7.3 58 .1 64.2-5.5 1.7-1.5 4-4.6 5.2-6.8 2.5-4.9 6.2-22.4 6.9-32.7.5-6.5.2-8.3-1.6-12.2-3.6-7.3-9.8-10.1-24.6-11.1-4.4-.3-11.4-.8-15.5-1-4.1-.3-10.9-.8-15-1-36.2-2-35.4-1.9-35.8-6-.6-4.6 1.5-10.3 4.1-11.1 3.2-1.1 51.7-1.2 55-.1 2.7.9 2.9 1.3 2.5 5.3l-.3 4.4h35.2l1-6.1c2.5-15.8-1.7-25.3-12.6-27.9-3.7-.9-81.6-2.1-82.4-1.3zM251.1 100.5c-2.8 14.1-3.2 16.3-3.7 19.1-.2 1.6-1.2 6.7-2 11.4-.9 4.7-1.7 9.6-1.9 11-.2 1.4-.8 4.8-1.4 7.7-.6 2.9-1.3 7.4-1.7 10-.3 2.6-.8 5.1-1 5.4-.1.3-1.2 5.9-2.4 12.5-1.1 6.5-2.7 15.5-3.5 19.9-.8 4.4-1.5 8.6-1.5 9.2 0 1 4.4 1.3 18.5 1.3 10.2 0 18.5-.2 18.5-.5 0-.6 3.5-20.4 4.5-25.5.3-1.4.8-4.1 1.1-6 .3-1.9 1.6-9.4 3-16.5 1.3-7.2 2.6-14.7 3-16.9.3-2.1.8-4.8 1-6 .2-1.1 1.3-7.3 2.4-13.6 1.2-6.3 2.3-12.2 2.5-13 .2-.8.6-3.3.9-5.5.4-2.2.9-5.2 1.2-6.8l.6-2.7h-37.1l-1 5.5z"/></svg>