<?xml version="1.0" encoding="utf-8"?>
<!-- Generator: Adobe Illustrator 22.1.0, SVG Export Plug-In . SVG Version: 6.00 Build 0)  -->
<svg version="1.1" id="Calque_1" xmlns="http://www.w3.org/2000/svg" xmlns:xlink="http://www.w3.org/1999/xlink" x="0px" y="0px"
	 viewBox="0 0 308.3 67.7" style="enable-background:new 0 0 308.3 67.7;" xml:space="preserve">
<style type="text/css">
	.st0{fill:#007ED3;}
</style>
<path class="st0" d="M61,52c-0.3,1.4-0.6,2.8-0.9,4.2H14.3L24,11.4c6.7,0,13.3,0,20,0c8.6,0,17.3,0,25.9,0c-0.4,2-0.8,4.1-1.3,6.1
	h10.5c1.2-5.5,2.4-10.9,3.4-16.4c-12.6,0-25.1,0-37.7,0c-9.7,0-19.4,0-29,0L1.7,66.5h66.7c1-4.8,2-9.6,3-14.4H61z"/>
<g>
	<path d="M25.8,39.7h9.9l-0.2,1.1c-0.2,1.2,0.2,1.7,1.8,1.7h9.4c1.6,0,2-0.4,2.4-1.7l0.2-1c0.2-1.2-0.1-1.6-1.6-1.7l-13-0.9
		c-5.2-0.4-7.4-2.2-6.5-6.3l0.8-3.5c0.9-4.1,3.2-5.7,8.4-5.7H55c5.1,0,7.2,2.1,6.4,6.3l-0.3,1.9h-9.9l0.1-0.8
		c0.2-1.2-0.3-1.7-1.9-1.7h-8.3c-1.5,0-2.1,0.4-2.3,1.7l-0.1,0.5c-0.2,1.2,0,1.6,1.5,1.7l13,0.9c5.3,0.4,7.4,2.2,6.5,6.3l-0.9,4
		c-0.9,4.1-3.2,5.7-8.4,5.7H31.8c-5.1,0-7.4-2.2-6.5-6.3L25.8,39.7z"/>
	<path d="M61.8,48.2l5.9-26.5h23.2c6,0,8.6,2.4,7.5,7.3l-1.1,5.1c-0.5,2.4-1.5,4.1-2.9,5.1c-1.4,0.9-3.7,1.4-6.7,1.4H73.8l-1.7,7.6
		H61.8z M75.1,34.6h9.4c1.9,0,2.5-0.5,2.9-2l0.6-2.5c0.3-1.6-0.3-2.1-2.2-2.1h-9.1L75.1,34.6z"/>
	<path d="M126.7,21.7c6,0,8.6,2.4,7.5,7.3l-0.8,3.6c-1,4.3-3.1,6.1-7.7,6.4l5.4,9.2h-10.4l-4.8-8.5h-6.1l-2,8.5H97.6l5.9-26.5H126.7
		z M112.5,27.7l-1.3,6.1h9.3c2,0,2.6-0.5,2.9-2l0.5-2c0.3-1.6-0.3-2.1-2.2-2.1H112.5z"/>
	<path d="M140.6,21.7H151l-5.9,26.5h-10.4L140.6,21.7z"/>
	<path d="M180.1,21.7h9.9l-5.9,26.5h-8.3l-12.7-15.4l-3.4,15.4h-9.9l5.9-26.5h8.7l12.4,15L180.1,21.7z"/>
	<path d="M224.7,21.7l-1.6,7.2h-10.8L208,48.2h-10.3l4.3-19.3h-10.8l1.6-7.2H224.7z"/>
	<path d="M227.8,21.7h10.4l-5.9,26.5h-10.4L227.8,21.7z"/>
	<path d="M269.7,28.5h-18l-1,4.4h16.1l-1.4,6.3h-16.1l-2,9H237l5.9-26.5h28.3L269.7,28.5z"/>
	<path d="M308.3,21.7l-17,16.8l-2.2,9.7h-10.3l2.2-9.6l-9.6-16.8h11.3l4.8,9.6l8.9-9.6H308.3z"/>
</g>
</svg>
